<?xml version="1.0" standalone="no"?>
<!DOCTYPE svg PUBLIC "-//W3C//DTD SVG 20010904//EN"
 "http://www.w3.org/TR/2001/REC-SVG-20010904/DTD/svg10.dtd">
<svg version="1.0" xmlns="http://www.w3.org/2000/svg"
 width="333.000000pt" height="71.000000pt" viewBox="0 0 333.000000 71.000000"
 preserveAspectRatio="xMidYMid meet">
<metadata>
Created by potrace 1.16, written by Peter Selinger 2001-2019
</metadata>
<g transform="translate(0.000000,71.000000) scale(0.100000,-0.100000)"
fill="#000000" stroke="none">
<path d="M928 615 c-54 -30 -48 -103 12 -142 73 -46 81 -60 53 -88 -16 -17
-53 -17 -94 0 -12 4 -15 0 -14 -17 3 -37 72 -45 132 -16 41 20 42 115 2 105
-10 -3 -19 -1 -19 4 0 4 -7 5 -17 2 -11 -4 -14 -3 -9 6 4 6 16 9 27 6 10 -4
19 -4 19 -1 0 7 -63 41 -72 38 -4 -1 -11 10 -14 24 -8 30 29 72 49 56 13 -10
62 -24 53 -15 -3 4 -1 12 5 19 13 15 3 22 -47 29 -25 3 -48 0 -66 -10z"/>
<path d="M490 599 c-11 -8 -4 -9 27 -7 23 2 40 2 38 -1 -3 -2 5 -15 15 -29 51
-64 11 -171 -102 -277 -78 -73 -136 -125 -141 -125 -2 0 -35 -20 -73 -45 -88
-58 -75 -57 29 2 110 62 189 121 181 135 -5 7 -2 8 5 3 18 -11 71 43 63 64 -5
14 -4 14 11 2 19 -15 23 -1 5 17 -8 8 -8 12 -1 12 16 0 53 67 53 96 0 30 24
28 27 -2 3 -18 2 -18 -7 1 -9 17 -10 16 -5 -7 3 -16 1 -28 -5 -28 -5 0 -10 -7
-10 -15 0 -8 -3 -15 -8 -15 -4 0 -13 -9 -20 -20 -24 -39 8 -19 36 23 61 87 60
170 -1 207 -35 22 -93 26 -117 9z"/>
</g>
</svg>
